<svg aria-hidden="true" style="position: absolute; width: 0; height: 0; overflow: hidden;" version="1.1" xmlns="http://www.w3.org/2000/svg" xmlns:xlink="http://www.w3.org/1999/xlink">
<defs>
<symbol id="icon-user-circle" viewBox="0 0 32 32">
<path d="M16 2.667c7.36 0 13.333 5.973 13.333 13.333s-5.973 13.333-13.333 13.333c-7.36 0-13.333-5.973-13.333-13.333s5.973-13.333 13.333-13.333zM8.031 20.555c1.957 2.92 4.896 4.779 8.183 4.779 3.285 0 6.225-1.857 8.181-4.779-2.219-2.074-5.144-3.226-8.181-3.221-3.038-0.005-5.963 1.147-8.183 3.221v0zM16 14.667c1.061 0 2.078-0.421 2.828-1.172s1.172-1.768 1.172-2.828c0-1.061-0.421-2.078-1.172-2.828s-1.768-1.172-2.828-1.172c-1.061 0-2.078 0.421-2.828 1.172s-1.172 1.768-1.172 2.828c0 1.061 0.421 2.078 1.172 2.828s1.768 1.172 2.828 1.172v0z"></path>
</symbol>
<symbol id="icon-left" viewBox="0 0 32 32">
<path d="M19.609 7.057c0.521 0.521 0.521 1.365 0 1.886l-7.057 7.057 7.057 7.057c0.521 0.521 0.521 1.365 0 1.886s-1.365 0.521-1.886 0l-8-8c-0.521-0.521-0.521-1.365 0-1.886l8-8c0.521-0.521 1.365-0.521 1.886 0z"></path>
</symbol>
<symbol id="icon-chili-3" viewBox="0 0 32 32">
<path d="M13.907 9.76l-2.093-1.2c0.693-1.093 1.667-1.893 2.773-2.293-0.082-0.269-0.248-0.504-0.474-0.672-0.047-0.035-0.095-0.066-0.146-0.094-0.32-0.178-0.634-0.463-0.634-0.829v-1.338c0-0.368 0.301-0.673 0.664-0.612 0.763 0.128 1.452 0.473 2.003 0.972v1.64c0.6 0 1.080 0.4 1.253 0.933-1.48 0.507-2.68 1.8-3.347 3.493zM13.333 14.667c0-1.027 0.307-2 0.8-2.787l-1.787-1.013c-1.013 0.387-1.68 1.347-1.68 2.467v1.333c0 7.802 4.501 11.654 7.655 13.394 0.271 0.149 0.502-0.215 0.279-0.43-2.889-2.791-5.267-7-5.267-12.964zM8.573 9.76l-2.093-1.2c0.693-1.093 1.667-1.893 2.773-2.293-0.082-0.269-0.248-0.504-0.474-0.672-0.047-0.035-0.095-0.066-0.146-0.094-0.32-0.178-0.634-0.463-0.634-0.829v-1.338c0-0.368 0.301-0.673 0.664-0.612 0.763 0.128 1.452 0.473 2.003 0.972v1.64c0.6 0 1.080 0.4 1.253 0.933-1.48 0.507-2.68 1.8-3.347 3.493zM8 14.667c0-1.027 0.307-2 0.8-2.787l-1.787-1.013c-1.013 0.387-1.68 1.347-1.68 2.467v1.333c0 7.802 4.501 11.654 7.655 13.394 0.271 0.149 0.502-0.215 0.279-0.43-2.889-2.791-5.267-7-5.267-12.964zM25.333 11.040l-1.667 0.96-2.333-1.333-2.333 1.333-1.667-0.96c-0.8 0.467-1.333 1.32-1.333 2.293v1.333c0 9.977 7.373 13.502 9.859 14.407 0.408 0.148 0.807-0.161 0.807-0.595v-15.146c0-0.973-0.533-1.827-1.333-2.293zM16.973 8.84l2.027 1.16 2.333-1.333 2.333 1.333 2.027-1.16c-0.733-1.293-1.813-2.253-3.067-2.64-0.113-0.972-0.579-1.868-1.308-2.519-0.563-0.502-1.252-0.831-1.987-0.957-0.363-0.062-0.665 0.242-0.665 0.611v1.332c0 0.368 0.318 0.652 0.637 0.835 0.285 0.162 0.504 0.43 0.616 0.752-1.213 0.413-2.24 1.347-2.947 2.587z"></path>
</symbol>
<symbol id="icon-chili-2" viewBox="0 0 32 32">
<path d="M11.24 9.76l-2.093-1.2c0.693-1.093 1.667-1.893 2.773-2.293-0.082-0.269-0.248-0.504-0.474-0.672-0.047-0.035-0.095-0.066-0.146-0.094-0.32-0.178-0.634-0.463-0.634-0.829v-1.338c0-0.368 0.301-0.673 0.664-0.612 0.763 0.128 1.452 0.473 2.003 0.972v1.64c0.6 0 1.080 0.4 1.253 0.933-1.48 0.507-2.68 1.8-3.347 3.493zM10.667 14.667c0-1.027 0.307-2 0.8-2.787l-1.787-1.013c-1.013 0.387-1.68 1.347-1.68 2.467v1.333c0 7.802 4.501 11.654 7.655 13.394 0.271 0.149 0.502-0.215 0.279-0.43-2.889-2.791-5.267-7-5.267-12.964zM22.667 11.040l-1.667 0.96-2.333-1.333-2.333 1.333-1.667-0.96c-0.8 0.467-1.333 1.32-1.333 2.293v1.333c0 9.977 7.373 13.502 9.859 14.407 0.408 0.148 0.807-0.161 0.807-0.595v-15.146c0-0.973-0.533-1.827-1.333-2.293zM14.307 8.84l2.027 1.16 2.333-1.333 2.333 1.333 2.027-1.16c-0.733-1.293-1.813-2.253-3.067-2.64-0.113-0.972-0.579-1.868-1.308-2.519-0.563-0.502-1.252-0.831-1.987-0.957-0.363-0.062-0.665 0.242-0.665 0.611v1.332c0 0.368 0.318 0.652 0.637 0.835 0.285 0.162 0.504 0.43 0.616 0.752-1.213 0.413-2.24 1.347-2.947 2.587z"></path>
</symbol>
<symbol id="icon-chili-1" viewBox="0 0 32 32">
<path d="M21.333 13.333v15.146c0 0.434-0.4 0.743-0.807 0.595-2.486-0.905-9.859-4.431-9.859-14.407v-1.333c0-0.973 0.533-1.827 1.333-2.293l1.667 0.96 2.333-1.333 2.333 1.333 1.667-0.96c0.8 0.467 1.333 1.32 1.333 2.293zM16 8.667l2.333 1.333 2.027-1.16c-0.733-1.293-1.813-2.253-3.067-2.64-0.113-0.972-0.579-1.868-1.308-2.519-0.563-0.502-1.252-0.831-1.987-0.957-0.363-0.062-0.665 0.242-0.665 0.611v1.332c0 0.368 0.318 0.652 0.637 0.835 0.285 0.162 0.504 0.43 0.616 0.752-1.213 0.413-2.24 1.347-2.947 2.587l2.027 1.16 2.333-1.333z"></path>
</symbol>
<symbol id="icon-chili-0" viewBox="0 0 32 32">
<path d="M20 11.040c0.8 0.467 1.333 1.32 1.333 2.293v3.733l-6-6.013 0.667-0.387 2.333 1.333 1.667-0.96zM16 8.667l2.333 1.333 2.027-1.16c-0.733-1.293-1.813-2.253-3.067-2.64-0.113-0.972-0.579-1.868-1.308-2.519-0.563-0.502-1.252-0.831-1.987-0.957-0.363-0.062-0.665 0.242-0.665 0.611v1.332c0 0.368 0.318 0.652 0.637 0.835 0.285 0.162 0.504 0.43 0.616 0.752-0.907 0.307-1.707 0.907-2.36 1.707l1.827 1.827 1.947-1.12zM3.656 2.776c-0.26-0.26-0.68-0.261-0.941-0.002l-0.76 0.754c-0.262 0.26-0.263 0.683-0.002 0.944l8.714 8.727v1.467c0 9.977 7.373 13.502 9.859 14.407 0.408 0.148 0.807-0.161 0.807-0.595v-4.626l5.982 5.982c0.26 0.26 0.683 0.26 0.943 0l0.751-0.751c0.26-0.26 0.26-0.682 0-0.943l-25.353-25.365z"></path>
</symbol>
<symbol id="icon-cross" viewBox="0 0 32 32">
<path d="M5.78 5.808c0.595-0.632 1.56-0.632 2.155 0l8.065 8.569 8.065-8.569c0.595-0.632 1.56-0.632 2.155 0s0.595 1.657 0 2.29l-8.065 8.569 8.065 8.569c0.595 0.632 0.595 1.657 0 2.29s-1.56 0.632-2.155 0l-8.065-8.569-8.065 8.569c-0.595 0.632-1.56 0.632-2.155 0s-0.595-1.657 0-2.29l8.065-8.569-8.065-8.569c-0.595-0.632-0.595-1.657 0-2.29z"></path>
</symbol>
<symbol id="icon-filter" viewBox="0 0 32 32">
<path d="M15.997 28.8c-1.127-0.005-2.207-0.457-3.002-1.257s-1.24-1.883-1.238-3.010v-7.618l-6.024-6.782-0.061-0.077c-0.487-0.639-0.783-1.403-0.856-2.203s0.082-1.604 0.446-2.321c0.351-0.702 0.891-1.293 1.559-1.705s1.438-0.63 2.223-0.628h13.909c0.785-0.001 1.554 0.216 2.222 0.628s1.207 1.002 1.558 1.705c0.365 0.716 0.52 1.52 0.448 2.32s-0.369 1.563-0.856 2.202l-0.061 0.078-0.067 0.075-5.959 6.707v7.619c0.002 1.128-0.444 2.211-1.239 3.010s-1.875 1.251-3.003 1.255zM9.045 5.76c-0.309-0.002-0.611 0.085-0.872 0.249s-0.47 0.4-0.602 0.679c-0.146 0.29-0.207 0.615-0.177 0.938s0.15 0.631 0.347 0.889l6.602 7.434v8.586c-0.007 0.222 0.031 0.443 0.111 0.65s0.201 0.396 0.356 0.555c0.154 0.159 0.339 0.286 0.544 0.373s0.424 0.131 0.646 0.131 0.442-0.045 0.646-0.131c0.204-0.087 0.389-0.213 0.544-0.373s0.275-0.348 0.355-0.555 0.118-0.428 0.111-0.65v-8.586l6.603-7.432c0.197-0.258 0.317-0.567 0.347-0.89s-0.032-0.649-0.177-0.939c-0.132-0.279-0.341-0.514-0.602-0.678s-0.563-0.251-0.872-0.25h-13.909z"></path>
</symbol>
<symbol id="icon-fire" viewBox="0 0 32 32">
<path d="M16 30.667c-2.004-0-3.961-0.602-5.619-1.728s-2.938-2.724-3.677-4.587-0.9-3.904-0.464-5.86c0.436-1.956 1.449-3.735 2.909-5.108 1.658-1.56 5.553-4.278 5.585-9.972 0.003-0.563 0.637-0.937 1.098-0.612 7.203 5.074 10.435 10.267 2.834 17.869 1.333 0 3.333 0 6.667-3.293 0.36 1.031 0.667 2.139 0.667 3.293 0 2.652-1.054 5.196-2.929 7.071s-4.419 2.929-7.071 2.929z"></path>
</symbol>
<symbol id="icon-flag" viewBox="0 0 32 32">
<path d="M18.361 5.129c-0.066-0.319-0.24-0.605-0.494-0.811s-0.572-0.318-0.9-0.318h-10.211c-0.377 0-0.739 0.149-1.006 0.413s-0.417 0.624-0.417 0.998v21.177c0 0.374 0.15 0.733 0.417 0.998s0.628 0.413 1.006 0.413 0.739-0.149 1.006-0.413c0.267-0.265 0.417-0.624 0.417-0.998v-8.471h7.964l0.341 1.694c0.128 0.661 0.715 1.137 1.394 1.129h7.367c0.377 0 0.739-0.149 1.006-0.413s0.417-0.624 0.417-0.998v-11.294c0-0.374-0.15-0.734-0.417-0.998s-0.629-0.413-1.006-0.413h-6.542l-0.341-1.694z"></path>
</symbol>
<symbol id="icon-menu" viewBox="0 0 32 32">
<path d="M5.333 9.333c0-0.736 0.597-1.333 1.333-1.333h18.667c0.736 0 1.333 0.597 1.333 1.333s-0.597 1.333-1.333 1.333h-18.667c-0.736 0-1.333-0.597-1.333-1.333zM5.333 16c0-0.736 0.597-1.333 1.333-1.333h18.667c0.736 0 1.333 0.597 1.333 1.333s-0.597 1.333-1.333 1.333h-18.667c-0.736 0-1.333-0.597-1.333-1.333zM5.333 22.667c0-0.736 0.597-1.333 1.333-1.333h18.667c0.736 0 1.333 0.597 1.333 1.333s-0.597 1.333-1.333 1.333h-18.667c-0.736 0-1.333-0.597-1.333-1.333z"></path>
</symbol>
<symbol id="icon-pot" viewBox="0 0 32 32">
<path d="M26.667 15.25v9.917c0 0.751-0.281 1.472-0.781 2.003s-1.178 0.83-1.886 0.83h-16c-0.707 0-1.386-0.299-1.886-0.83s-0.781-1.252-0.781-2.003v-9.917h-1.333c-0.354 0-0.693-0.149-0.943-0.415s-0.391-0.626-0.391-1.002c0-0.376 0.14-0.736 0.391-1.002s0.589-0.415 0.943-0.415h24c0.354 0 0.693 0.149 0.943 0.415s0.391 0.626 0.391 1.002c0 0.376-0.141 0.736-0.391 1.002s-0.589 0.415-0.943 0.415h-1.333zM14.667 8.167v-2.75c0-0.376 0.141-0.736 0.391-1.002s0.589-0.415 0.943-0.415c0.354 0 0.693 0.149 0.943 0.415s0.391 0.626 0.391 1.002v2.75h8c0.354 0 0.693 0.149 0.943 0.415s0.391 0.626 0.391 1.002c0 0.376-0.141 0.736-0.391 1.002s-0.589 0.415-0.943 0.415h-18.667c-0.354 0-0.693-0.149-0.943-0.415s-0.391-0.626-0.391-1.002c0-0.376 0.14-0.736 0.391-1.002s0.589-0.415 0.943-0.415h8z"></path>
</symbol>
<symbol id="icon-scale" viewBox="0 0 32 32">
<path d="M21.099 27.4c0 0.697 0.574 1.267 1.275 1.267h4.373c1.109 0 2.014-0.95 1.912-2.052-0.752-7.853-5.775-11.020-10.109-11.881v-3.8c4.22-0.532 7.687-2.356 9.268-4.725 0.829-1.229 1.553-2.875-1.645-2.875h-20.346c-3.197 0-2.473 1.647-1.644 2.875 1.581 2.369 5.048 4.193 9.268 4.725v3.8c-4.334 0.861-9.357 4.028-10.109 11.881-0.102 1.102 0.803 2.052 1.912 2.052h4.373c0.701 0 1.275-0.57 1.275-1.267s-0.574-1.267-1.275-1.267h-3.659c1.186-8.651 8.478-9.12 10.033-9.12s8.847 0.469 10.033 9.12h-3.659c-0.701 0-1.275 0.57-1.275 1.267zM15.363 28.591c-0.892-0.215-1.619-0.937-1.836-1.824-0.23-0.937 0.076-1.824 0.676-2.419 0.701-0.697 3.71-1.989 5.52-2.723 0.523-0.215 1.045 0.304 0.829 0.823-0.739 1.799-2.040 4.788-2.741 5.485-0.599 0.583-1.492 0.887-2.448 0.659z"></path>
</symbol>
<symbol id="icon-right" viewBox="0 0 32 32">
<path d="M12.391 7.057c-0.521 0.521-0.521 1.365 0 1.886l7.057 7.057-7.057 7.057c-0.521 0.521-0.521 1.365 0 1.886s1.365 0.521 1.886 0l8-8c0.521-0.521 0.521-1.365 0-1.886l-8-8c-0.521-0.521-1.365-0.521-1.886 0z"></path>
</symbol>
<symbol id="icon-share" viewBox="0 0 32 32">
<path d="M15.057 3.057c0.521-0.521 1.365-0.521 1.886 0l4 4c0.521 0.521 0.521 1.365 0 1.886s-1.365 0.521-1.886 0l-1.724-1.724v12.781c0 0.736-0.597 1.333-1.333 1.333s-1.333-0.597-1.333-1.333v-12.781l-1.724 1.724c-0.521 0.521-1.365 0.521-1.886 0s-0.521-1.365 0-1.886l4-4zM5.333 14.667c0-1.473 1.194-2.667 2.667-2.667h2.667c0.736 0 1.333 0.597 1.333 1.333s-0.597 1.333-1.333 1.333h-2.667v12h16v-12h-2.667c-0.736 0-1.333-0.597-1.333-1.333s0.597-1.333 1.333-1.333h2.667c1.473 0 2.667 1.194 2.667 2.667v12c0 1.473-1.194 2.667-2.667 2.667h-16c-1.473 0-2.667-1.194-2.667-2.667v-12z"></path>
</symbol>
<symbol id="icon-sort" viewBox="0 0 32 32">
<path d="M9.333 20l7.333 10.667 7.333-10.667h-14.667z"></path>
<path d="M16.667 2.667l7.333 10.667h-14.667l7.333-10.667z"></path>
</symbol>
<symbol id="icon-down" viewBox="0 0 32 32">
<path d="M16 24l-8-16h16l-8 16z"></path>
</symbol>
<symbol id="icon-up" viewBox="0 0 32 32">
<path d="M16 8l8 16h-16l8-16z"></path>
</symbol>
<symbol id="icon-time" viewBox="0 0 32 32">
<path d="M16 29.333c-7.364 0-13.333-5.969-13.333-13.333s5.969-13.333 13.333-13.333c7.364 0 13.333 5.969 13.333 13.333s-5.969 13.333-13.333 13.333zM17.333 16v-6.667h-2.667v9.333h8v-2.667h-5.333z"></path>
</symbol>
<symbol id="icon-heart" viewBox="0 0 32 32">
<path d="M16 27.077c-0.237-0-0.467-0.085-0.647-0.239-0.414-0.348-0.678-0.578-1.023-0.88l-0.016-0.014c-0.434-0.38-0.976-0.854-2.143-1.846l-0.11-0.091c-3.041-2.607-5.442-4.666-6.873-6.906-0.315-0.469-0.583-0.968-0.799-1.489-0.506-1.128-0.742-2.358-0.689-3.593 0.032-1.845 0.768-3.608 2.058-4.927s3.035-2.096 4.879-2.17c1.044 0.010 2.071 0.262 3.001 0.735s1.738 1.155 2.362 1.992c0.623-0.834 1.43-1.514 2.357-1.987s1.952-0.726 2.993-0.74c1.536 0.055 3.013 0.603 4.214 1.563s2.059 2.281 2.45 3.768c0.032 0.112 0.063 0.229 0.090 0.347s0.052 0.238 0.071 0.341c0.067 0.356 0.108 0.717 0.123 1.079 0.052 1.241-0.185 2.477-0.693 3.61-0.218 0.521-0.487 1.019-0.802 1.487-1.422 2.228-3.828 4.289-6.873 6.9 0 0-0.101 0.087-0.102 0.087-1.167 0.985-1.707 1.461-2.143 1.846l-0.016 0.015c-0.315 0.277-0.591 0.517-1.022 0.88-0.182 0.151-0.411 0.233-0.647 0.231zM10.699 6.937c-1.335 0.064-2.596 0.636-3.524 1.598s-1.453 2.243-1.468 3.58c-0.033 0.934 0.149 1.863 0.533 2.715 0.17 0.41 0.382 0.803 0.631 1.17 1.284 2.011 3.584 3.982 6.496 6.476l0.106 0.092c1.167 0.985 1.697 1.45 2.182 1.874l0.097 0.086c0.082 0.073 0.164 0.144 0.246 0.217l0.181-0.159 0.165-0.144c0.45-0.395 0.985-0.862 2.187-1.878l0.007-0.006c2.966-2.544 5.31-4.554 6.58-6.54 0.249-0.368 0.461-0.76 0.634-1.169 0.387-0.857 0.571-1.792 0.538-2.732-0.013-0.268-0.043-0.536-0.092-0.8l-0.123-0.516c-0.271-1.066-0.877-2.017-1.73-2.713s-1.906-1.098-3.005-1.148c-0.949 0.047-1.867 0.354-2.654 0.888s-1.411 1.274-1.804 2.139c-0.085 0.161-0.213 0.296-0.369 0.39s-0.335 0.144-0.517 0.144-0.361-0.050-0.517-0.144c-0.156-0.094-0.284-0.229-0.369-0.39-0.388-0.86-1.004-1.597-1.782-2.131s-1.687-0.845-2.629-0.899v0z"></path>
</symbol>
<symbol id="icon-heart-full" viewBox="0 0 32 32">
<path d="M16 27.077c-0.237-0-0.467-0.085-0.647-0.239-0.414-0.348-0.678-0.578-1.023-0.88l-0.016-0.014c-0.434-0.38-0.976-0.854-2.143-1.846l-0.11-0.091c-3.041-2.607-5.442-4.666-6.873-6.906-0.315-0.469-0.583-0.968-0.799-1.489-0.506-1.128-0.742-2.358-0.689-3.593 0.032-1.845 0.768-3.608 2.058-4.927s3.035-2.096 4.879-2.17c1.044 0.010 2.071 0.262 3.001 0.735s1.738 1.155 2.362 1.992c0.623-0.834 1.43-1.514 2.357-1.987s1.952-0.726 2.993-0.74c1.536 0.055 3.013 0.603 4.214 1.563s2.059 2.281 2.45 3.768c0.032 0.112 0.063 0.229 0.090 0.347s0.052 0.238 0.071 0.341c0.067 0.356 0.108 0.717 0.123 1.079 0.052 1.241-0.185 2.477-0.693 3.61-0.218 0.521-0.487 1.019-0.802 1.487-1.422 2.228-3.828 4.289-6.873 6.9l-0.102 0.087c-1.167 0.985-1.707 1.461-2.143 1.846l-0.016 0.015c-0.315 0.277-0.591 0.517-1.022 0.88-0.182 0.151-0.411 0.233-0.647 0.231z"></path>
</symbol>
<symbol id="icon-list-user" viewBox="0 0 32 32">
<path d="M17.6 25.354h-9.231c-0.715-0.010-1.398-0.298-1.904-0.804s-0.794-1.189-0.804-1.904v-10.954h-2.215c-0.334-0.001-0.664-0.079-0.963-0.229s-0.559-0.366-0.761-0.633c-0.306-0.386-0.479-0.861-0.492-1.354v-4.308c0.002-0.43 0.103-0.853 0.295-1.237s0.47-0.719 0.813-0.978c0.519-0.317 1.115-0.488 1.723-0.492h16.615c1.083 0.016 2.127 0.408 2.954 1.108 0.578 0.527 1.032 1.176 1.33 1.899s0.432 1.504 0.393 2.285v1.723h-1.846v-1.846c0-1.777-0.694-2.462-1.108-2.708-0.485-0.399-1.095-0.617-1.723-0.615h-13.292v18.215c-0.001 0.13 0.023 0.258 0.072 0.378s0.122 0.229 0.213 0.321 0.201 0.164 0.321 0.213c0.12 0.049 0.249 0.074 0.378 0.072h10.092l-0.862 1.846zM4.062 4.308c-0.114-0.005-0.228 0.014-0.334 0.056s-0.202 0.107-0.281 0.19c-0.112 0-0.246 0.107-0.246 0.615v4.554h2.462v-5.415h-1.6z"></path>
<path d="M8.615 8.246c-0.002-0.13 0.022-0.259 0.071-0.379s0.121-0.23 0.213-0.321c0.092-0.092 0.201-0.164 0.321-0.213s0.249-0.073 0.379-0.071h9.846c0.13-0.002 0.259 0.022 0.379 0.071s0.23 0.121 0.321 0.213 0.164 0.201 0.213 0.321c0.049 0.12 0.073 0.249 0.071 0.379 0.002 0.13-0.022 0.259-0.071 0.379s-0.121 0.23-0.213 0.321c-0.092 0.092-0.201 0.164-0.321 0.213s-0.249 0.073-0.379 0.071h-9.846c-0.255-0.017-0.496-0.127-0.677-0.308s-0.29-0.422-0.308-0.677v0z"></path>
<path d="M8.615 11.938c-0.002-0.13 0.022-0.259 0.071-0.379s0.121-0.23 0.213-0.321c0.092-0.092 0.201-0.164 0.321-0.213s0.249-0.073 0.379-0.071h8.615c0.13-0.002 0.259 0.022 0.379 0.071s0.23 0.121 0.321 0.213 0.164 0.201 0.213 0.321c0.049 0.12 0.073 0.249 0.071 0.379 0.002 0.13-0.022 0.259-0.071 0.379s-0.121 0.23-0.213 0.321-0.201 0.164-0.321 0.213c-0.12 0.049-0.249 0.073-0.379 0.071h-8.615c-0.255-0.017-0.496-0.127-0.677-0.308s-0.29-0.422-0.308-0.677v0z"></path>
<path d="M8.615 15.631c-0.002-0.13 0.022-0.259 0.071-0.379s0.121-0.23 0.213-0.321c0.092-0.092 0.201-0.164 0.321-0.213s0.249-0.073 0.379-0.071h6.154c0.13-0.002 0.259 0.022 0.379 0.071s0.23 0.121 0.321 0.213 0.164 0.201 0.213 0.321c0.049 0.12 0.073 0.249 0.071 0.379 0.012 0.132-0.005 0.266-0.050 0.391s-0.117 0.238-0.211 0.332c-0.094 0.094-0.207 0.166-0.332 0.211s-0.258 0.062-0.391 0.050h-6.154c-0.255-0.017-0.496-0.127-0.677-0.308s-0.29-0.422-0.308-0.677v0z"></path>
<path d="M23.138 19.815c-1.144 0-2.263-0.339-3.214-0.975s-1.693-1.539-2.13-2.596c-0.438-1.057-0.552-2.22-0.329-3.342s0.774-2.153 1.583-2.962 1.84-1.36 2.962-1.583c1.122-0.223 2.285-0.109 3.342 0.329s1.96 1.179 2.596 2.131c0.636 0.951 0.975 2.070 0.975 3.214-0.002 1.534-0.612 3.004-1.696 4.088s-2.555 1.695-4.088 1.696v0zM23.138 10.092c-0.779 0-1.54 0.231-2.188 0.664s-1.152 1.048-1.451 1.768-0.376 1.511-0.224 2.276c0.152 0.764 0.527 1.466 1.078 2.017s1.253 0.926 2.017 1.078c0.764 0.152 1.556 0.074 2.276-0.224s1.335-0.803 1.767-1.451c0.433-0.648 0.664-1.409 0.664-2.188 0-1.045-0.415-2.046-1.154-2.785s-1.74-1.154-2.785-1.154z"></path>
<path d="M30.523 30.031h-14.769c-0.114 0.003-0.227-0.018-0.333-0.060s-0.202-0.106-0.282-0.186c-0.081-0.081-0.144-0.177-0.186-0.282s-0.063-0.219-0.060-0.333c-0.155-1.827 0.323-3.652 1.354-5.169 0.974-1.46 2.954-3.2 6.892-3.2s5.919 1.74 6.892 3.2c1.030 1.517 1.508 3.342 1.354 5.169-0.014 0.224-0.109 0.435-0.268 0.594s-0.37 0.254-0.594 0.268v0zM23.138 22.646c-1.026-0.088-2.057 0.079-3.002 0.487s-1.774 1.044-2.413 1.852c-0.573 0.976-0.91 2.071-0.985 3.2h12.923c-0.091-1.144-0.472-2.245-1.108-3.2-0.636-0.811-1.464-1.45-2.41-1.858s-1.979-0.574-3.005-0.48v0z"></path>
</symbol>
<symbol id="icon-user-shield" viewBox="0 0 32 32">
<path d="M13.8 13.229c-1.52-0.027-2.968-0.655-4.026-1.747s-1.639-2.56-1.617-4.080c-0.023-1.521 0.559-2.989 1.616-4.082s2.506-1.722 4.027-1.749c1.521 0.027 2.97 0.655 4.028 1.748s1.639 2.561 1.617 4.082c0.022 1.521-0.56 2.988-1.618 4.080s-2.506 1.721-4.027 1.747v0zM13.8 3.535c-1.008 0.018-1.968 0.435-2.67 1.16s-1.086 1.698-1.071 2.707c-0.015 1.008 0.37 1.981 1.072 2.705s1.661 1.141 2.669 1.159c1.008-0.018 1.968-0.435 2.669-1.159s1.087-1.697 1.072-2.705c0.015-1.008-0.37-1.981-1.071-2.706s-1.661-1.142-2.669-1.16v0z"></path>
<path d="M22.951 30.667l-0.52-0.279c-1.421-0.77-2.617-1.898-3.467-3.273h-12.982c-0.678-0.012-1.323-0.292-1.795-0.78s-0.73-1.141-0.72-1.819c-0.041-2.785 1.023-5.473 2.96-7.474s4.589-3.153 7.374-3.202c1.522 0.006 3.023 0.353 4.393 1.015s2.574 1.623 3.524 2.812h4.006l2.682 2.693v1.652c0.001 1.724-0.458 3.416-1.331 4.902-0.86 1.467-2.107 2.668-3.605 3.473l-0.519 0.279zM18.365 25.998c0.134 0.313 0.288 0.619 0.459 0.913-0.17-0.296-0.323-0.601-0.459-0.913zM22.949 25.082l1.814 0.987-0.347-2.090 1.47-1.481-2.031-0.303-0.907-1.901-0.909 1.901-2.031 0.303 1.47 1.481-0.346 2.094 1.816-0.987 0.001-0.004zM13.801 15.805c-2.272 0.040-4.436 0.98-6.017 2.613s-2.449 3.826-2.415 6.099c-0.003 0.165 0.061 0.325 0.176 0.443s0.272 0.187 0.437 0.19h12.054c-0.352-1.008-0.535-2.068-0.54-3.136v-1.652l2.127-2.134c-1.543-1.546-3.637-2.417-5.821-2.422z"></path>
</symbol>
<symbol id="icon-check-setting" viewBox="0 0 32 32">
<path stroke-linejoin="round" stroke-linecap="butt" stroke-miterlimit="10" stroke-width="2" d="M16.267 2.831h-10.607c-0.181-0.002-0.361 0.032-0.529 0.099s-0.321 0.167-0.45 0.294c-0.129 0.127-0.232 0.277-0.304 0.444s-0.109 0.345-0.111 0.526v21.807c0.002 0.181 0.040 0.36 0.111 0.526s0.174 0.317 0.304 0.444c0.129 0.127 0.282 0.226 0.45 0.294s0.348 0.101 0.529 0.099h9.469"></path>
<path stroke-linejoin="round" stroke-linecap="butt" stroke-miterlimit="10" stroke-width="2" d="M15.067 2.831v4.601c0.002 0.203 0.044 0.404 0.123 0.591s0.195 0.356 0.34 0.499 0.316 0.255 0.505 0.331c0.188 0.076 0.39 0.114 0.593 0.112h6.839"></path>
<path stroke-linejoin="round" stroke-linecap="butt" stroke-miterlimit="10" stroke-width="2" d="M15.067 2.831h1.135l7.265 5.946v9.583"></path>
<path d="M11.559 21.988c-1.219-0.4-2.276-1.183-3.014-2.232s-1.116-2.31-1.079-3.592c0-1.556 0.618-3.048 1.718-4.148s2.592-1.718 4.148-1.718v1.641c-1.121 0-2.196 0.445-2.988 1.238s-1.238 1.867-1.238 2.988c-0.037 0.938 0.234 1.862 0.77 2.632s1.309 1.344 2.202 1.635c0.102 0.034 0.197 0.088 0.278 0.159s0.148 0.157 0.196 0.253c0.048 0.096 0.077 0.201 0.084 0.309s-0.006 0.215-0.040 0.318c-0.034 0.102-0.088 0.197-0.159 0.278s-0.157 0.148-0.253 0.196c-0.096 0.048-0.201 0.077-0.309 0.084s-0.215-0.005-0.318-0.039zM17.618 14.954c-0.301-0.893-0.879-1.666-1.649-2.209s-1.693-0.825-2.635-0.808v-1.641c1.27-0.017 2.514 0.365 3.556 1.092s1.829 1.763 2.251 2.961c0.045 0.101 0.069 0.209 0.070 0.32s-0.019 0.22-0.061 0.322c-0.041 0.102-0.103 0.195-0.181 0.272s-0.171 0.139-0.273 0.18c-0.102 0.041-0.212 0.061-0.322 0.059s-0.219-0.027-0.319-0.072c-0.1-0.045-0.191-0.11-0.266-0.191s-0.133-0.176-0.17-0.28v-0.005z"></path>
<path d="M11.989 18.48l0.688-0.516 0.64 0.576c-0.084 0.096-0.189 0.171-0.306 0.221s-0.244 0.073-0.372 0.067c-0.127-0.006-0.252-0.040-0.364-0.1s-0.21-0.145-0.285-0.248v0zM12.677 17.963l-0.688 0.516-1.194-1.634 1.052-0.789 0.862 1.181 2.147-2.45 0.978 0.881-2.518 2.873-0.639-0.577zM10.931 15.919c0.069-0.052 0.147-0.089 0.231-0.11s0.171-0.025 0.256-0.012c0.085 0.013 0.167 0.043 0.241 0.088s0.137 0.104 0.188 0.174l-1.052 0.789c-0.104-0.142-0.147-0.318-0.122-0.492s0.118-0.33 0.258-0.436v0zM14.856 14.787c0.057-0.065 0.125-0.118 0.203-0.156s0.161-0.060 0.247-0.066c0.086-0.005 0.172 0.007 0.254 0.035s0.156 0.073 0.22 0.131c0.13 0.118 0.209 0.282 0.219 0.457s-0.049 0.347-0.165 0.479l-0.978-0.881z"></path>
<path stroke-linejoin="miter" stroke-linecap="butt" stroke-miterlimit="10" stroke-width="1.6" d="M19.572 17.198c0.055-0.147 0.153-0.273 0.282-0.363s0.282-0.137 0.439-0.137h1.012c0.157 0 0.31 0.048 0.439 0.137s0.227 0.216 0.282 0.363l0.294 0.785c0.043 0.109 0.109 0.208 0.193 0.29s0.184 0.146 0.295 0.187c0.076 0.030 0.151 0.061 0.226 0.094 0.107 0.049 0.223 0.075 0.341 0.077s0.234-0.022 0.342-0.069l0.764-0.347c0.143-0.065 0.302-0.085 0.457-0.057s0.297 0.103 0.407 0.213l0.716 0.716c0.111 0.111 0.185 0.253 0.213 0.407s0.008 0.314-0.057 0.457l-0.347 0.764c-0.047 0.108-0.070 0.225-0.069 0.342s0.027 0.234 0.077 0.341c0.033 0.071 0.064 0.146 0.094 0.226 0.041 0.11 0.104 0.211 0.187 0.295s0.181 0.15 0.29 0.193l0.785 0.294c0.146 0.055 0.273 0.153 0.362 0.282s0.137 0.281 0.137 0.437v1.012c0 0.157-0.048 0.31-0.137 0.439s-0.216 0.227-0.363 0.282l-0.785 0.294c-0.109 0.043-0.208 0.109-0.29 0.193s-0.146 0.184-0.187 0.295c-0.030 0.076-0.061 0.151-0.094 0.226-0.049 0.107-0.075 0.223-0.077 0.341s0.022 0.234 0.069 0.342l0.347 0.764c0.065 0.143 0.085 0.302 0.057 0.457s-0.103 0.297-0.213 0.407l-0.716 0.716c-0.111 0.111-0.253 0.185-0.407 0.213s-0.314 0.008-0.457-0.057l-0.764-0.347c-0.108-0.047-0.224-0.070-0.342-0.069s-0.234 0.027-0.341 0.077c-0.071 0.033-0.146 0.064-0.226 0.094-0.11 0.041-0.211 0.104-0.295 0.186s-0.15 0.181-0.193 0.29l-0.294 0.785c-0.055 0.146-0.153 0.272-0.282 0.362s-0.281 0.137-0.437 0.138h-1.013c-0.157-0-0.31-0.048-0.439-0.137s-0.227-0.216-0.282-0.363l-0.294-0.78c-0.043-0.109-0.109-0.208-0.193-0.29s-0.184-0.146-0.295-0.186c-0.076-0.030-0.151-0.061-0.226-0.094-0.107-0.049-0.223-0.075-0.341-0.077s-0.234 0.022-0.342 0.069l-0.764 0.347c-0.143 0.065-0.302 0.085-0.456 0.057s-0.297-0.102-0.408-0.213l-0.716-0.716c-0.111-0.111-0.185-0.253-0.213-0.407s-0.008-0.314 0.057-0.457l0.347-0.764c0.047-0.108 0.071-0.224 0.070-0.341s-0.027-0.233-0.075-0.34c-0.033-0.071-0.064-0.147-0.094-0.226-0.041-0.111-0.105-0.213-0.188-0.298s-0.183-0.151-0.294-0.194l-0.78-0.294c-0.147-0.055-0.273-0.153-0.363-0.282s-0.137-0.282-0.137-0.439v-1.013c0-0.157 0.048-0.31 0.137-0.439s0.216-0.227 0.363-0.282l0.78-0.294c0.109-0.043 0.208-0.109 0.29-0.193s0.146-0.184 0.186-0.295c0.030-0.076 0.061-0.151 0.094-0.226 0.049-0.107 0.075-0.223 0.077-0.341s-0.022-0.234-0.069-0.342l-0.347-0.764c-0.065-0.143-0.085-0.302-0.057-0.457s0.102-0.297 0.213-0.407l0.716-0.716c0.111-0.111 0.253-0.185 0.408-0.213s0.314-0.008 0.456 0.057l0.764 0.347c0.108 0.047 0.224 0.071 0.341 0.070s0.233-0.027 0.34-0.075c0.071-0.033 0.147-0.064 0.226-0.094 0.112-0.041 0.213-0.105 0.298-0.188s0.151-0.183 0.194-0.294l0.294-0.78z"></path>
<path stroke-linejoin="miter" stroke-linecap="butt" stroke-miterlimit="10" stroke-width="1.3333" d="M20.8 25.231c0.884 0 1.6-0.716 1.6-1.6s-0.716-1.6-1.6-1.6-1.6 0.716-1.6 1.6c0 0.884 0.716 1.6 1.6 1.6z"></path>
</symbol>
<symbol id="icon-home" viewBox="0 0 32 32">
<path stroke-linejoin="miter" stroke-linecap="butt" stroke-miterlimit="10" stroke-width="2.4" d="M26.075 26.667h-7.661c-0.099 0.001-0.197-0.017-0.289-0.054s-0.175-0.092-0.246-0.161c-0.070-0.069-0.126-0.152-0.164-0.243s-0.058-0.189-0.058-0.288v-3.599c0-0.396-0.157-0.776-0.437-1.056s-0.66-0.437-1.056-0.437c-0.396 0-0.776 0.157-1.056 0.437s-0.437 0.66-0.437 1.056v3.599c0 0.099-0.020 0.197-0.058 0.288s-0.094 0.174-0.164 0.243c-0.070 0.069-0.154 0.124-0.245 0.161s-0.19 0.055-0.289 0.054h-7.661c-0.099 0.001-0.197-0.017-0.289-0.054s-0.175-0.092-0.245-0.161c-0.070-0.069-0.126-0.152-0.164-0.243s-0.058-0.189-0.058-0.288v-11.462c0.001-0.33 0.071-0.656 0.208-0.956s0.335-0.568 0.583-0.786v0l9.374-8.26c0.139-0.122 0.318-0.189 0.503-0.189s0.364 0.067 0.503 0.189l9.374 8.259c0.248 0.218 0.446 0.486 0.582 0.787s0.207 0.627 0.207 0.956v11.462c0 0.099-0.020 0.197-0.058 0.288s-0.094 0.174-0.164 0.243c-0.070 0.069-0.154 0.124-0.245 0.161s-0.19 0.055-0.289 0.054z"></path>
</symbol>
<symbol id="icon-money-cart" viewBox="0 0 32 32">
<path d="M13.489 12.75h-0.463v-0.499c-0.48-0.003-0.95-0.128-1.367-0.365-0.271-0.168-0.48-0.419-0.595-0.716-0.050-0.148-0.086-0.301-0.107-0.457l1.402-0.234c0 0.194 0.073 0.381 0.205 0.524 0.127 0.118 0.291 0.187 0.464 0.195v-1.193c-0.387-0.058-0.764-0.165-1.123-0.32-0.253-0.107-0.469-0.287-0.621-0.516s-0.232-0.498-0.231-0.774c0.007-0.315 0.112-0.62 0.302-0.872s0.453-0.438 0.753-0.532c0.295-0.107 0.606-0.165 0.919-0.17v-0.347h0.463v0.353c0.379 0.012 0.752 0.102 1.094 0.266 0.22 0.106 0.411 0.262 0.56 0.456s0.249 0.42 0.294 0.66l-1.396 0.221c-0.003-0.146-0.062-0.286-0.164-0.39s-0.241-0.166-0.387-0.172v1.041c0.493 0.045 0.973 0.19 1.408 0.427 0.215 0.125 0.392 0.305 0.513 0.521s0.182 0.462 0.176 0.71c0 1.008-0.803 1.658-2.097 1.695v0.486zM13.489 10.070v1.134c0.458-0.032 0.681-0.221 0.681-0.58 0.005-0.089-0.017-0.177-0.063-0.254s-0.115-0.137-0.196-0.173c-0.136-0.061-0.279-0.103-0.427-0.126l0.005-0.001zM13.026 7.863c-0.377 0.025-0.592 0.202-0.592 0.484-0 0.078 0.022 0.155 0.064 0.221s0.102 0.119 0.173 0.151c0.113 0.053 0.232 0.091 0.355 0.113v-0.97z"></path>
<path d="M20.115 27.551c-0.014 0.344-0.163 0.669-0.416 0.904s-0.588 0.359-0.932 0.347c-0.345 0.013-0.68-0.112-0.933-0.346s-0.403-0.559-0.416-0.904c0.014-0.344 0.164-0.669 0.417-0.903s0.588-0.358 0.932-0.345c0.344-0.013 0.679 0.112 0.932 0.346s0.402 0.558 0.417 0.902z"></path>
<path d="M30.19 27.551c-0.014 0.344-0.163 0.669-0.416 0.904s-0.588 0.359-0.932 0.347c-0.345 0.013-0.68-0.112-0.933-0.346s-0.403-0.559-0.416-0.904c0.014-0.344 0.164-0.669 0.417-0.903s0.588-0.358 0.932-0.345c0.344-0.013 0.679 0.112 0.932 0.346s0.402 0.558 0.417 0.902z"></path>
<path d="M27.106 25.777h-6.605c-0.663 0.013-1.315-0.176-1.868-0.542s-0.98-0.894-1.226-1.51h-9.6c-0.738 0.027-1.456-0.24-1.998-0.742s-0.863-1.197-0.893-1.935v-9.688h-1.924c-0.492 0.017-0.97-0.161-1.331-0.495s-0.575-0.798-0.595-1.29v-3.698c0.030-0.738 0.351-1.433 0.893-1.935s1.26-0.769 1.998-0.742h13.489c1.23-0.044 2.427 0.401 3.329 1.237s1.438 1.996 1.488 3.225v6.514h2.027v-1.785c0.010-0.245 0.117-0.476 0.297-0.643s0.418-0.256 0.663-0.248h3.093c0.245-0.008 0.484 0.081 0.663 0.248s0.286 0.398 0.297 0.643v4.462h0.661c0.133-0.001 0.264 0.024 0.387 0.075s0.234 0.125 0.328 0.219c0.089 0.089 0.157 0.197 0.199 0.316s0.058 0.245 0.045 0.371l-0.558 5.206c-0.11 0.778-0.503 1.488-1.105 1.993s-1.369 0.77-2.155 0.743v0zM18.702 18.639l0.457 4.229c0.045 0.32 0.207 0.612 0.455 0.82s0.564 0.317 0.887 0.305h6.606c0.323 0.011 0.639-0.098 0.886-0.306s0.41-0.499 0.456-0.819l0.455-4.229h-10.202zM6.682 4.985c0.019 0.052 0.034 0.104 0.047 0.158 0.006 0.026 0.013 0.051 0.020 0.076s0.011 0.037 0.016 0.055c0.005 0.018 0.020 0.066 0.028 0.1 0.035 0.166 0.054 0.334 0.054 0.503v15.17c0.010 0.245 0.117 0.476 0.297 0.643s0.418 0.256 0.663 0.249h9.311l-0.445-4.106-0.157-1.514c-0.020-0.137-0.090-0.262-0.196-0.351s-0.242-0.136-0.38-0.131h-1.638c-0.123 0.009-0.247-0.007-0.363-0.047s-0.223-0.105-0.314-0.189c-0.091-0.084-0.163-0.185-0.212-0.298s-0.075-0.235-0.075-0.358 0.025-0.245 0.075-0.358c0.049-0.113 0.122-0.215 0.212-0.298s0.197-0.148 0.314-0.189 0.24-0.057 0.363-0.047h1.637c0.6-0.021 1.186 0.181 1.646 0.567s0.761 0.927 0.846 1.522l0.077 0.707h0.96v-1.78c0.010-0.228 0.104-0.444 0.265-0.606s0.376-0.258 0.604-0.269v-6.531c-0.030-0.738-0.351-1.433-0.893-1.935s-1.26-0.769-1.998-0.742h-10.766zM21.394 15.961v0.893h5.987v-0.893h-5.987zM26.211 13.285v0.892h1.173v-0.892h-1.173zM3.957 4.985c-0.245-0.008-0.484 0.082-0.664 0.249s-0.286 0.399-0.296 0.644v3.698h1.923v-3.698c-0.010-0.246-0.117-0.478-0.297-0.645s-0.42-0.256-0.666-0.248v0z"></path>
</symbol>
<symbol id="icon-medal" viewBox="0 0 32 32">
<path stroke-linejoin="miter" stroke-linecap="butt" stroke-miterlimit="4" stroke-width="2.4" d="M16.733 4.271l9.591 5.537c0.454 0.262 0.733 0.746 0.733 1.27v11.075c0 0.524-0.28 1.008-0.733 1.27l-9.591 5.537c-0.454 0.262-1.013 0.262-1.467 0l-9.591-5.537c-0.454-0.262-0.733-0.746-0.733-1.27v-11.075c0-0.524 0.28-1.008 0.733-1.27l9.591-5.537c0.454-0.262 1.013-0.262 1.467 0z"></path>
<path stroke-linejoin="miter" stroke-linecap="butt" stroke-miterlimit="4" stroke-width="1.6" d="M15.996 9.498c0.040-0.123 0.214-0.123 0.254 0l1.501 4.62c0.018 0.055 0.069 0.092 0.127 0.092h4.858c0.129 0 0.183 0.165 0.078 0.241l-3.93 2.855c-0.047 0.034-0.066 0.094-0.048 0.149l1.501 4.62c0.040 0.123-0.101 0.225-0.205 0.149l-3.93-2.855c-0.047-0.034-0.11-0.034-0.157 0l-3.93 2.855c-0.104 0.076-0.245-0.026-0.205-0.149l1.501-4.62c0.018-0.055-0.002-0.115-0.049-0.149l-3.93-2.855c-0.104-0.076-0.051-0.241 0.078-0.241h4.858c0.058 0 0.109-0.037 0.127-0.092l1.501-4.62z"></path>
</symbol>
<symbol id="icon-order" viewBox="0 0 32 32">
<path stroke-linejoin="miter" stroke-linecap="round" stroke-miterlimit="10" stroke-width="2.4" d="M11.517 13.084h8.271"></path>
<path stroke-linejoin="miter" stroke-linecap="round" stroke-miterlimit="10" stroke-width="2.4" d="M11.517 16.95h6.638"></path>
<path stroke-linejoin="miter" stroke-linecap="round" stroke-miterlimit="10" stroke-width="2.4" d="M11.517 20.817h3.947"></path>
<path d="M8.887 14.146c0.577 0 1.044-0.467 1.044-1.044s-0.468-1.044-1.044-1.044-1.044 0.468-1.044 1.044c0 0.577 0.468 1.044 1.044 1.044z"></path>
<path d="M8.887 18.013c0.577 0 1.044-0.467 1.044-1.044s-0.468-1.044-1.044-1.044-1.044 0.468-1.044 1.044c0 0.577 0.468 1.044 1.044 1.044z"></path>
<path d="M8.887 21.879c0.577 0 1.044-0.468 1.044-1.044s-0.468-1.044-1.044-1.044c-0.577 0-1.044 0.468-1.044 1.044s0.468 1.044 1.044 1.044z"></path>
<path stroke-linejoin="miter" stroke-linecap="butt" stroke-miterlimit="10" stroke-width="2.4" d="M23.31 27.91c2.847 0 5.155-2.308 5.155-5.155s-2.308-5.155-5.155-5.155-5.155 2.308-5.155 5.155c0 2.847 2.308 5.155 5.155 5.155z"></path>
<path stroke-linejoin="round" stroke-linecap="round" stroke-miterlimit="10" stroke-width="2" d="M21.26 22.934l1.36 1.35 2.741-2.701"></path>
<path stroke-linejoin="miter" stroke-linecap="butt" stroke-miterlimit="10" stroke-width="2.4" d="M11.746 5.134c-0.283 0-0.554 0.112-0.754 0.312s-0.312 0.471-0.312 0.754v2.377h7.733v-2.377c0-0.283-0.112-0.554-0.312-0.754s-0.471-0.312-0.754-0.312h-1.12c0 0-0.3-1.712-1.68-1.712s-1.564 1.712-1.564 1.712h-1.236z"></path>
<path stroke-linejoin="miter" stroke-linecap="butt" stroke-miterlimit="10" stroke-width="2.4" d="M10.679 7.289h-4.458c-0.283 0-0.554 0.112-0.754 0.312s-0.312 0.471-0.312 0.754v17.2c0 0.283 0.112 0.554 0.312 0.754s0.471 0.312 0.754 0.312h13.422"></path>
<path stroke-linejoin="miter" stroke-linecap="butt" stroke-miterlimit="10" stroke-width="2.4" d="M18.413 7.289h4.205c0.283 0 0.554 0.112 0.754 0.312s0.312 0.471 0.312 0.754v9.556"></path>
</symbol>
<symbol id="icon-qa" viewBox="0 0 32 32">
<path d="M29.071 27.85h-26.005c-0.232-0.004-0.454-0.099-0.616-0.266s-0.251-0.391-0.248-0.623v-14.268c-0.003-0.232 0.087-0.456 0.248-0.622s0.383-0.262 0.615-0.265h1.771v-0.836c-0.003-0.232 0.087-0.456 0.248-0.622s0.383-0.262 0.615-0.265h2.592v-4.098c-0.009-0.697 0.259-1.369 0.745-1.869s1.15-0.787 1.847-0.797h10.368c0.697 0.011 1.361 0.297 1.847 0.797s0.754 1.172 0.745 1.869v4.097h2.592c0.232 0.003 0.453 0.099 0.615 0.265s0.251 0.39 0.249 0.622v0.837h1.771c0.232 0.003 0.453 0.099 0.615 0.265s0.251 0.39 0.249 0.622v14.268c0.003 0.233-0.086 0.457-0.248 0.623s-0.384 0.263-0.616 0.266v0zM27.3 13.582v12.491h0.908v-12.491h-0.908zM19.524 24.296c-0.16 0.002-0.319 0.018-0.476 0.049-0.029 0.006-0.058 0.014-0.086 0.021l-0.054 0.014c-0.106 0.027-0.211 0.060-0.313 0.1-0.051 0.019-0.098 0.039-0.142 0.061-0.102 0.049-0.201 0.103-0.297 0.164l-0.048 0.030c-0.019 0.012-0.038 0.023-0.055 0.036-0.125 0.089-0.242 0.188-0.35 0.297l-0.045 0.051c-0.090 0.096-0.172 0.199-0.246 0.307-0.023 0.033-0.045 0.069-0.066 0.107l-0.011 0.019c-0.058 0.094-0.11 0.192-0.156 0.292-0.026 0.054-0.044 0.096-0.060 0.138-0.006 0.016-0.011 0.033-0.015 0.049 0 0.014-0.007 0.028-0.013 0.042h8.48v-1.777h-6.048zM6.565 24.296v1.776h8.481c-0.005-0.015-0.010-0.031-0.014-0.046s-0.009-0.033-0.015-0.049c-0.017-0.044-0.036-0.086-0.055-0.129-0.048-0.104-0.101-0.206-0.161-0.304l-0.022-0.037c-0.016-0.026-0.031-0.051-0.048-0.077-0.079-0.115-0.166-0.224-0.261-0.325-0.006-0.006-0.011-0.012-0.016-0.018l-0.014-0.016c-0.11-0.111-0.229-0.212-0.357-0.302-0.017-0.013-0.035-0.023-0.054-0.034l-0.034-0.021c-0.102-0.066-0.209-0.125-0.32-0.176-0.051-0.023-0.091-0.041-0.128-0.054-0.108-0.043-0.22-0.079-0.333-0.107l-0.037-0.010c-0.029-0.007-0.057-0.016-0.085-0.021-0.159-0.032-0.32-0.049-0.482-0.050l-6.043 0.001zM3.93 13.582v12.491h0.907v-12.491h-0.907zM16.932 18.755v4.655c0.018-0.013 0.036-0.025 0.055-0.036 0.017-0.010 0.033-0.020 0.048-0.031 0.057-0.041 0.117-0.079 0.176-0.116l0.051-0.033c0.143-0.092 0.292-0.175 0.446-0.249 0.095-0.045 0.176-0.081 0.258-0.114 0.167-0.066 0.339-0.121 0.513-0.164l0.069-0.019c0.057-0.016 0.115-0.033 0.174-0.045 0.264-0.054 0.532-0.082 0.801-0.085h6.048v-10.659h-1.728v1.233c0.009 0.697-0.259 1.369-0.745 1.869s-1.15 0.787-1.847 0.797h-2.527l-1.793 2.997zM6.565 11.859v10.658h6.093c0.251 0.004 0.501 0.030 0.747 0.078 0.070 0.014 0.14 0.034 0.207 0.052l0.055 0.016c0.167 0.042 0.332 0.095 0.493 0.159 0.084 0.033 0.173 0.073 0.271 0.119 0.149 0.072 0.294 0.153 0.433 0.242l0.020 0.013c0.073 0.046 0.147 0.092 0.213 0.142 0.016 0.012 0.033 0.022 0.049 0.033s0.033 0.020 0.049 0.033v-4.652l-1.792-2.997h-2.519c-0.697-0.011-1.361-0.297-1.847-0.797s-0.754-1.172-0.745-1.869v-1.23h-1.727zM10.884 5.094c-0.232 0.003-0.454 0.099-0.616 0.265s-0.251 0.39-0.248 0.622v7.109c-0.002 0.115 0.019 0.23 0.061 0.337s0.105 0.205 0.186 0.288 0.176 0.149 0.282 0.195c0.106 0.046 0.22 0.070 0.335 0.072h3.010c0.149 0.002 0.295 0.042 0.424 0.116s0.236 0.182 0.311 0.31l1.439 2.395 1.439-2.403c0.075-0.129 0.182-0.235 0.311-0.31s0.275-0.115 0.424-0.116h3.010c0.232-0.003 0.454-0.099 0.616-0.265s0.251-0.391 0.248-0.623v-7.103c0.003-0.232-0.087-0.456-0.249-0.622s-0.383-0.262-0.615-0.265l-10.368-0.002z"></path>
<path d="M16.709 12.924h-1.546v-1.493h1.546v1.493zM16.647 10.897h-1.426c0.015-0.121 0.020-0.242 0.015-0.364-0.039-0.42 0.082-0.839 0.338-1.173 0.219-0.254 0.488-0.461 0.79-0.607 0.373-0.228 0.499-0.394 0.499-0.656 0-0.371-0.273-0.592-0.73-0.592-0.147-0.013-0.294 0.015-0.425 0.081s-0.243 0.166-0.321 0.291c-0.084 0.147-0.131 0.312-0.139 0.481l-1.579-0.153c0.026-0.443 0.198-0.866 0.491-1.2 0.255-0.273 0.568-0.486 0.916-0.622s0.722-0.194 1.095-0.168c1.417 0 2.299 0.681 2.299 1.777 0.009 0.216-0.029 0.432-0.111 0.632s-0.207 0.38-0.365 0.528c-0.285 0.251-0.596 0.471-0.928 0.656-0.141 0.074-0.257 0.187-0.335 0.325s-0.113 0.297-0.102 0.456c0.001 0.103 0.009 0.206 0.022 0.308l-0.004 0.001z"></path>
</symbol>
<symbol id="icon-cart" viewBox="0 0 32 32">
<path d="M25.397 28.534c-0.733-0.005-1.446-0.248-2.030-0.691s-1.009-1.065-1.21-1.77h-10.751c-0.221 0.785-0.72 1.464-1.403 1.91s-1.504 0.63-2.312 0.518c-0.808-0.113-1.548-0.514-2.083-1.13s-0.829-1.405-0.827-2.221c-0.002-0.64 0.181-1.267 0.525-1.806s0.836-0.968 1.417-1.236l-2.556-15.338h-2.629c-0.245 0-0.48-0.097-0.653-0.27s-0.27-0.408-0.27-0.653c0-0.245 0.097-0.48 0.27-0.653s0.408-0.27 0.653-0.27h3.41c0.219-0.001 0.431 0.076 0.598 0.218s0.278 0.338 0.313 0.554l0.626 3.762h19.193c0.402 0 0.798 0.088 1.163 0.257s0.688 0.415 0.948 0.721c0.26 0.306 0.45 0.665 0.557 1.052s0.129 0.793 0.064 1.189l-1.572 9.425c0.581 0.268 1.073 0.697 1.418 1.236s0.527 1.166 0.525 1.806c0 0.898-0.357 1.76-0.991 2.395s-1.496 0.993-2.394 0.994zM25.429 23.622h-0.1c-0.133 0.009-0.264 0.035-0.39 0.078-0.084 0.028-0.167 0.063-0.246 0.103-0.175 0.092-0.331 0.217-0.458 0.369-0.090 0.101-0.165 0.213-0.225 0.334-0.010 0.023-0.020 0.047-0.027 0.071 0 0.017-0.011 0.033-0.017 0.049-0.065 0.166-0.101 0.341-0.105 0.519-0.001 0.294 0.081 0.582 0.238 0.83s0.382 0.446 0.648 0.571c0.266 0.124 0.562 0.17 0.854 0.132s0.565-0.159 0.79-0.349c0.225-0.189 0.39-0.439 0.478-0.719s0.092-0.58 0.015-0.863c-0.078-0.283-0.235-0.538-0.453-0.735s-0.488-0.327-0.778-0.376c-0.075-0.011-0.15-0.015-0.225-0.014h0.001zM8.144 23.622c-0.077 0-0.155 0.006-0.231 0.017-0.288 0.049-0.557 0.18-0.773 0.377s-0.372 0.451-0.449 0.734c-0.077 0.282-0.071 0.581 0.016 0.86s0.253 0.528 0.476 0.716c0.224 0.189 0.497 0.309 0.787 0.348s0.585-0.007 0.85-0.13c0.265-0.124 0.49-0.321 0.647-0.567s0.24-0.534 0.24-0.826c-0.005-0.176-0.041-0.349-0.105-0.513-0.006-0.016-0.011-0.032-0.017-0.048-0.008-0.028-0.018-0.055-0.031-0.081-0.057-0.116-0.13-0.223-0.215-0.32-0.192-0.228-0.443-0.399-0.726-0.492-0.12-0.040-0.244-0.065-0.369-0.075l-0.098 0.002zM6.794 11.303l1.748 10.481c0.041 0.005 0.083 0.012 0.123 0.022l0.079 0.016 0.046 0.009c0.046 0.009 0.091 0.016 0.137 0.026 0.165 0.037 0.327 0.088 0.485 0.15l0.033 0.011c0.019 0.006 0.038 0.013 0.057 0.021 0.18 0.078 0.352 0.172 0.516 0.281 0.030 0.018 0.057 0.039 0.082 0.060l0.048 0.037c0.117 0.085 0.229 0.177 0.335 0.276 0.046 0.043 0.091 0.086 0.135 0.132 0.104 0.112 0.201 0.23 0.29 0.353l0.034 0.044c0.016 0.021 0.032 0.041 0.047 0.063 0.108 0.163 0.202 0.335 0.281 0.514 0.012 0.028 0.022 0.058 0.032 0.087l0.018 0.052 0.028 0.071c0.028 0.071 0.057 0.143 0.078 0.217h10.716c0.026-0.084 0.056-0.166 0.090-0.246l0.016-0.041c0.007-0.020 0.015-0.041 0.022-0.062s0.017-0.053 0.028-0.078c0.079-0.18 0.172-0.352 0.281-0.516 0.014-0.020 0.028-0.039 0.043-0.058l0.036-0.047c0.090-0.125 0.188-0.243 0.293-0.354 0.041-0.043 0.084-0.085 0.133-0.13 0.106-0.1 0.219-0.194 0.337-0.279l0.047-0.034c0.026-0.020 0.052-0.039 0.080-0.058 0.164-0.109 0.337-0.203 0.518-0.282l0.085-0.028c0.16-0.065 0.324-0.116 0.492-0.153 0.043-0.010 0.087-0.017 0.132-0.026l0.049-0.009 0.080-0.016c0.041-0.009 0.082-0.017 0.123-0.021l1.558-9.41c0.022-0.132 0.015-0.268-0.021-0.397s-0.099-0.249-0.186-0.352-0.195-0.185-0.316-0.241c-0.122-0.056-0.254-0.086-0.388-0.086h-18.88z"></path>
</symbol>
</defs>
</svg>
